<svg width="64" height="60" viewBox="0 0 64 60" fill="none" xmlns="http://www.w3.org/2000/svg">
<path d="M62.1865 30C62.1865 45.6598 48.7124 58.5 31.9068 58.5C15.1012 58.5 1.62714 45.6598 1.62714 30C1.62714 14.3402 15.1012 1.5 31.9068 1.5C48.7124 1.5 62.1865 14.3402 62.1865 30Z" fill="white"/>
<path d="M62.1865 30C62.1865 45.6598 48.7124 58.5 31.9068 58.5C15.1012 58.5 1.62714 45.6598 1.62714 30C1.62714 14.3402 15.1012 1.5 31.9068 1.5C48.7124 1.5 62.1865 14.3402 62.1865 30Z" fill="white"/>
<path d="M62.1865 30C62.1865 45.6598 48.7124 58.5 31.9068 58.5C15.1012 58.5 1.62714 45.6598 1.62714 30C1.62714 14.3402 15.1012 1.5 31.9068 1.5C48.7124 1.5 62.1865 14.3402 62.1865 30Z" stroke="#7085F6" stroke-width="3"/>
<g clip-path="url(#clip0_654_5)">
<path d="M16.0877 16.1754L21.234 21.3217M21.234 21.3217C19.5646 21.3234 18.6845 21.3473 18.0012 21.6955C17.3556 22.0244 16.8308 22.5493 16.5018 23.1948C16.1279 23.9287 16.1279 24.8894 16.1279 26.8108V39.8478C16.1279 41.7692 16.1279 42.73 16.5018 43.4638C16.8308 44.1093 17.3556 44.6342 18.0012 44.9631C18.735 45.337 19.6957 45.337 21.6172 45.337H41.5156C43.3113 45.337 44.2678 45.337 44.9843 45.0319M21.234 21.3217L28.8469 28.9347M46.9647 47.0524L44.9843 45.0319M44.9843 45.0319L35.9209 36.0086M27.6528 18.0076C27.8149 17.9642 27.9811 17.9325 28.1502 17.9131C28.3447 17.8908 28.5557 17.8908 28.9773 17.8908H34.1554C34.5772 17.8908 34.788 17.8908 34.9827 17.9131C35.9979 18.0294 36.9082 18.5921 37.4663 19.4481C37.5733 19.6121 37.6677 19.8008 37.8562 20.178C37.9505 20.3666 37.9977 20.4609 38.051 20.543C38.3301 20.9709 38.7854 21.2523 39.293 21.3104C39.3902 21.3216 39.4957 21.3216 39.7066 21.3216H41.5156C43.437 21.3216 44.3978 21.3216 45.1317 21.6955C45.7772 22.0244 46.3021 22.5493 46.6311 23.1948C47.0049 23.9287 47.0049 24.8894 47.0049 26.8108V37.3598M35.9209 36.0086C35.0169 37.4879 33.3869 38.4755 31.5262 38.4755C28.684 38.4755 26.38 36.1715 26.38 33.3293C26.38 31.4686 27.3675 29.8387 28.8469 28.9347M35.9209 36.0086L28.8469 28.9347" stroke="black" stroke-width="5" stroke-linecap="round" stroke-linejoin="round"/>
<path d="M16.0877 16.1754L21.234 21.3217M21.234 21.3217C19.5646 21.3234 18.6845 21.3473 18.0012 21.6955C17.3556 22.0244 16.8308 22.5493 16.5018 23.1948C16.1279 23.9287 16.1279 24.8894 16.1279 26.8108V39.8478C16.1279 41.7692 16.1279 42.73 16.5018 43.4638C16.8308 44.1093 17.3556 44.6342 18.0012 44.9631C18.735 45.337 19.6957 45.337 21.6172 45.337H41.5156C43.3113 45.337 44.2678 45.337 44.9843 45.0319M21.234 21.3217L28.8469 28.9347M46.9647 47.0524L44.9843 45.0319M44.9843 45.0319L35.9209 36.0086M27.6528 18.0076C27.8149 17.9642 27.9811 17.9325 28.1502 17.9131C28.3447 17.8908 28.5557 17.8908 28.9773 17.8908H34.1554C34.5772 17.8908 34.788 17.8908 34.9827 17.9131C35.9979 18.0294 36.9082 18.5921 37.4663 19.4481C37.5733 19.6121 37.6677 19.8008 37.8562 20.178C37.9505 20.3666 37.9977 20.4609 38.051 20.543C38.3301 20.9709 38.7854 21.2523 39.293 21.3104C39.3902 21.3216 39.4957 21.3216 39.7066 21.3216H41.5156C43.437 21.3216 44.3978 21.3216 45.1317 21.6955C45.7772 22.0244 46.3021 22.5493 46.6311 23.1948C47.0049 23.9287 47.0049 24.8894 47.0049 26.8108V37.3598M35.9209 36.0086C35.0169 37.4879 33.3869 38.4755 31.5262 38.4755C28.684 38.4755 26.38 36.1715 26.38 33.3293C26.38 31.4686 27.3675 29.8387 28.8469 28.9347M35.9209 36.0086L28.8469 28.9347" stroke="black" stroke-width="5" stroke-linecap="round" stroke-linejoin="round"/>
</g>
<defs>
<clipPath id="clip0_654_5">
<rect width="41.1693" height="41.1693" fill="white" transform="translate(13 10)"/>
</clipPath>
</defs>
</svg>
