<svg width="64" height="60" viewBox="0 0 64 60" fill="none" xmlns="http://www.w3.org/2000/svg">
<path d="M62.0593 30C62.0593 45.6598 48.5853 58.5 31.7797 58.5C14.974 58.5 1.5 45.6598 1.5 30C1.5 14.3402 14.974 1.5 31.7797 1.5C48.5853 1.5 62.0593 14.3402 62.0593 30Z" fill="white" stroke="#7085F6" stroke-width="3"/>
<path d="M32.5 37.5C35.7217 37.5 38.3333 34.9817 38.3333 31.875C38.3333 28.7683 35.7217 26.25 32.5 26.25C29.2782 26.25 26.6666 28.7683 26.6666 31.875C26.6666 34.9817 29.2782 37.5 32.5 37.5Z" stroke="black" stroke-width="5" stroke-linecap="round" stroke-linejoin="round"/>
<path d="M15 39V24.75C15 22.6498 15 21.5997 15.4239 20.7975C15.7967 20.0919 16.3916 19.5182 17.1234 19.1587C17.9552 18.75 19.0442 18.75 21.2222 18.75H23.2729C23.512 18.75 23.6315 18.75 23.7418 18.7378C24.3171 18.6743 24.8332 18.3667 25.1494 17.8989C25.21 17.8093 25.2635 17.7062 25.3704 17.5C25.5842 17.0877 25.6911 16.8815 25.8123 16.7022C26.4448 15.7665 27.4769 15.1515 28.6276 15.0244C28.8481 15 29.0871 15 29.5653 15H35.4348C35.9129 15 36.1519 15 36.3724 15.0244C37.5231 15.1515 38.5552 15.7665 39.1877 16.7022C39.3089 16.8815 39.4158 17.0877 39.6297 17.5C39.7364 17.7062 39.7899 17.8093 39.8506 17.8989C40.1669 18.3667 40.6828 18.6743 41.2582 18.7378C41.3686 18.75 41.488 18.75 41.7272 18.75H43.7778C45.9557 18.75 47.0448 18.75 47.8767 19.1587C48.6084 19.5182 49.2034 20.0919 49.5761 20.7975C50 21.5997 50 22.6498 50 24.75V39C50 41.1002 50 42.1504 49.5761 42.9525C49.2034 43.6581 48.6084 44.2318 47.8767 44.5913C47.0448 45 45.9557 45 43.7778 45H21.2222C19.0442 45 17.9552 45 17.1234 44.5913C16.3916 44.2318 15.7967 43.6581 15.4239 42.9525C15 42.1504 15 41.1002 15 39Z" stroke="black" stroke-width="5" stroke-linecap="round" stroke-linejoin="round"/>
</svg>
