<svg width="65" height="60" viewBox="0 0 65 60" fill="none" xmlns="http://www.w3.org/2000/svg">
<path d="M63.017 30C63.017 45.6598 49.5429 58.5 32.7373 58.5C15.9317 58.5 2.45764 45.6598 2.45764 30C2.45764 14.3402 15.9317 1.5 32.7373 1.5C49.5429 1.5 63.017 14.3402 63.017 30Z" fill="white" stroke="#7085F6" stroke-width="3"/>
<path d="M55.4733 26.3027L52.9807 23.8608C44.2021 15.4734 23.1769 16.6412 15.5905 23.8608L13.0978 26.3027C12.4475 26.9397 12.4475 28.0014 13.0978 28.7446L18.0832 33.5222C18.7334 34.1593 19.9256 34.1593 20.5758 33.5222L26.1031 28.3199L25.6696 22.6929C27.4036 20.9942 41.2759 20.9942 43.0099 22.6929L42.6848 28.5323L47.9953 33.5222C48.6456 34.1593 49.8377 34.1593 50.488 33.5222L55.4733 28.7446C56.232 28.0014 56.232 26.9397 55.4733 26.3027Z" fill="#F44336"/>
<path d="M34.3399 49.0001L25.6697 38.7527H43.01L34.3399 49.0001Z" fill="#B71C1C"/>
<path d="M37.591 31.2019H31.0884V39.292H37.591V31.2019Z" fill="#B71C1C"/>
</svg>
