<svg width="64" height="60" viewBox="0 0 64 60" fill="none" xmlns="http://www.w3.org/2000/svg">
<path d="M62.0593 30C62.0593 45.6598 48.5853 58.5 31.7797 58.5C14.974 58.5 1.5 45.6598 1.5 30C1.5 14.3402 14.974 1.5 31.7797 1.5C48.5853 1.5 62.0593 14.3402 62.0593 30Z" fill="white" stroke="#7085F6" stroke-width="3"/>
<path d="M47 26V29.5C47 36.2655 40.2843 41.75 32 41.75M32 41.75C23.7157 41.75 17 36.2655 17 29.5V26M32 41.75V47M23.4286 47H40.5714M32 34.75C28.4495 34.75 25.5714 32.3996 25.5714 29.5V17.25C25.5714 14.3505 28.4495 12 32 12C35.5505 12 38.4286 14.3505 38.4286 17.25V29.5C38.4286 32.3996 35.5505 34.75 32 34.75Z" stroke="black" stroke-width="5" stroke-linecap="round" stroke-linejoin="round"/>
</svg>
