<svg width="65" height="60" viewBox="0 0 65 60" fill="none" xmlns="http://www.w3.org/2000/svg">
<path d="M62.5508 30C62.5508 45.6598 49.0768 58.5 32.2712 58.5C15.4656 58.5 1.99152 45.6598 1.99152 30C1.99152 14.3402 15.4656 1.5 32.2712 1.5C49.0768 1.5 62.5508 14.3402 62.5508 30Z" fill="white"/>
<path d="M62.5508 30C62.5508 45.6598 49.0768 58.5 32.2712 58.5C15.4656 58.5 1.99152 45.6598 1.99152 30C1.99152 14.3402 15.4656 1.5 32.2712 1.5C49.0768 1.5 62.5508 14.3402 62.5508 30Z" fill="white"/>
<path d="M62.5508 30C62.5508 45.6598 49.0768 58.5 32.2712 58.5C15.4656 58.5 1.99152 45.6598 1.99152 30C1.99152 14.3402 15.4656 1.5 32.2712 1.5C49.0768 1.5 62.5508 14.3402 62.5508 30Z" stroke="#7085F6" stroke-width="3"/>
<path d="M37.5678 25.3333V18C37.5678 15.2386 35.1965 13 32.2712 13C30.1921 13 28.3927 14.1309 27.5258 15.7766M32.2712 41.3333V46.3333M25.209 46.3333H39.3333M16.3813 14.6667L48.161 44.6667M19.9132 26.3333C19.9132 26.3333 17.2652 41.3333 32.342 41.3333C36.7027 41.3333 39.5687 40.0785 41.4401 38.2947M44.6859 31.3333C45.0475 28.5795 44.6299 26.3333 44.6299 26.3333M32.2712 34.6667C29.3459 34.6667 26.9746 32.4282 26.9746 29.6667V24.6667L36.0187 33.2C35.06 34.1062 33.735 34.6667 32.2712 34.6667Z" stroke="black" stroke-width="5" stroke-linecap="round" stroke-linejoin="round"/>
</svg>
