<svg width="72" height="72" viewBox="0 0 72 72" fill="none" xmlns="http://www.w3.org/2000/svg">
<circle cx="35.5208" cy="35.5208" r="35.284" fill="white" stroke="#7085F6" stroke-width="0.47361"/>
<path fill-rule="evenodd" clip-rule="evenodd" d="M35.9199 47.8932C42.5326 47.8932 47.8932 42.5326 47.8932 35.9199C47.8932 29.3072 42.5326 23.9466 35.9199 23.9466C29.3073 23.9466 23.9467 29.3072 23.9467 35.9199C23.9467 42.5326 29.3073 47.8932 35.9199 47.8932ZM35.9199 43.9021C40.3283 43.9021 43.9021 40.3283 43.9021 35.9199C43.9021 31.5115 40.3283 27.9377 35.9199 27.9377C31.5115 27.9377 27.9378 31.5115 27.9378 35.9199C27.9378 40.3283 31.5115 43.9021 35.9199 43.9021Z" fill="#7085F6"/>
<path d="M47.8933 21.9511C46.7911 21.9511 45.8977 22.8445 45.8977 23.9466C45.8977 25.0487 46.7911 25.9422 47.8933 25.9422C48.9954 25.9422 49.8888 25.0487 49.8888 23.9466C49.8888 22.8445 48.9954 21.9511 47.8933 21.9511Z" fill="#7085F6"/>
<path fill-rule="evenodd" clip-rule="evenodd" d="M15.2739 20.5064C13.9689 23.0676 13.9689 26.4205 13.9689 33.1261V38.7137C13.9689 45.4193 13.9689 48.7722 15.2739 51.3333C16.4218 53.5863 18.2535 55.418 20.5064 56.5659C23.0676 57.8709 26.4205 57.8709 33.1261 57.8709H38.7137C45.4193 57.8709 48.7722 57.8709 51.3333 56.5659C53.5863 55.418 55.418 53.5863 56.5659 51.3333C57.871 48.7722 57.8709 45.4193 57.8709 38.7137V33.1261C57.8709 26.4205 57.871 23.0676 56.5659 20.5064C55.418 18.2535 53.5863 16.4218 51.3333 15.2739C48.7722 13.9689 45.4193 13.9689 38.7137 13.9689H33.1261C26.4205 13.9689 23.0676 13.9689 20.5064 15.2739C18.2535 16.4218 16.4218 18.2535 15.2739 20.5064ZM38.7137 17.96H33.1261C29.7074 17.96 27.3835 17.9631 25.5871 18.1098C23.8373 18.2528 22.9425 18.5119 22.3183 18.83C20.8164 19.5953 19.5953 20.8164 18.83 22.3183C18.5119 22.9425 18.2528 23.8373 18.1098 25.5871C17.9631 27.3834 17.96 29.7074 17.96 33.1261V38.7137C17.96 42.1324 17.9631 44.4563 18.1098 46.2527C18.2528 48.0026 18.5119 48.8974 18.83 49.5216C19.5953 51.0234 20.8164 52.2445 22.3183 53.0098C22.9425 53.3279 23.8373 53.5871 25.5871 53.73C27.3835 53.8767 29.7074 53.8798 33.1261 53.8798H38.7137C42.1325 53.8798 44.4563 53.8767 46.2527 53.73C48.0026 53.5871 48.8974 53.3279 49.5216 53.0098C51.0234 52.2445 52.2445 51.0234 53.0098 49.5216C53.3279 48.8974 53.5871 48.0026 53.73 46.2527C53.8767 44.4563 53.8799 42.1324 53.8799 38.7137V33.1261C53.8799 29.7074 53.8767 27.3834 53.73 25.5871C53.5871 23.8373 53.3279 22.9425 53.0098 22.3183C52.2445 20.8164 51.0234 19.5953 49.5216 18.83C48.8974 18.5119 48.0026 18.2528 46.2527 18.1098C44.4563 17.9631 42.1325 17.96 38.7137 17.96Z" fill="#7085F6"/>
</svg>
