<svg width="80" height="80" viewBox="0 0 80 80" fill="none" xmlns="http://www.w3.org/2000/svg">
<circle cx="40" cy="40" r="38.5" fill="white" stroke="#7085F6" stroke-width="3"/>
<path d="M19 47.5L11.5 40L19 32.5" stroke="black" stroke-width="5" stroke-linecap="round" stroke-linejoin="round"/>
<path d="M11.5 40H46.5" stroke="black" stroke-width="5" stroke-linecap="round" stroke-linejoin="round"/>
<path d="M29 30V22.5C29 21.837 29.2634 21.2011 29.7322 20.7322C30.2011 20.2634 30.837 20 31.5 20H54C54.663 20 55.2989 20.2634 55.7678 20.7322C56.2366 21.2011 56.5 21.837 56.5 22.5V57.5C56.5 58.163 56.2366 58.7989 55.7678 59.2678C55.2989 59.7366 54.663 60 54 60H31.5C30.837 60 30.2011 59.7366 29.7322 59.2678C29.2634 58.7989 29 58.163 29 57.5V50" stroke="black" stroke-width="5" stroke-linecap="round" stroke-linejoin="round"/>
</svg>
