<svg width="72" height="72" viewBox="0 0 72 72" fill="none" xmlns="http://www.w3.org/2000/svg">
<circle cx="35.5208" cy="35.5208" r="35.284" fill="white" stroke="#7085F6" stroke-width="0.47361"/>
<path d="M17.5608 22.5497C17.5608 39.6324 31.4091 53.4807 48.4918 53.4807C49.2625 53.4807 50.0266 53.4526 50.7833 53.3971C51.6516 53.3334 52.0856 53.3017 52.4809 53.0742C52.8082 52.8858 53.1185 52.5518 53.2825 52.2115C53.4807 51.8009 53.4807 51.3217 53.4807 50.3637V44.7416C53.4807 43.9358 53.4807 43.5329 53.348 43.1877C53.231 42.8826 53.0406 42.611 52.794 42.3966C52.5148 42.154 52.1361 42.0163 51.379 41.7409L44.9796 39.4139C44.0986 39.0936 43.658 38.9334 43.2401 38.9605C42.8715 38.9844 42.5169 39.1104 42.2156 39.3239C41.874 39.566 41.6329 39.9679 41.1506 40.7719L39.5118 43.503C34.2238 41.1081 29.937 36.8157 27.5385 31.5297L30.2697 29.891C31.0736 29.4087 31.4755 29.1675 31.7176 28.8258C31.9311 28.5245 32.0571 28.1699 32.081 27.8014C32.1081 27.3835 31.9479 26.943 31.6276 26.062L29.3006 19.6626C29.0252 18.9054 28.8875 18.5267 28.6449 18.2475C28.4306 18.0008 28.1589 17.8106 27.8539 17.6934C27.5085 17.5608 27.1057 17.5608 26.2999 17.5608H20.6779C19.7197 17.5608 19.2407 17.5608 18.8299 17.7589C18.4897 17.9229 18.1557 18.2334 17.9673 18.5607C17.7398 18.9559 17.708 19.39 17.6444 20.2583C17.589 21.0149 17.5608 21.779 17.5608 22.5497Z" stroke="#7085F6" stroke-width="3.9911" stroke-linecap="round" stroke-linejoin="round"/>
</svg>
