<svg width="45" height="45" viewBox="0 0 45 45" fill="none" xmlns="http://www.w3.org/2000/svg">
<mask id="mask0_75_46" style="mask-type:luminance" maskUnits="userSpaceOnUse" x="0" y="0" width="45" height="45">
<path d="M45 0H0V45H45V0Z" fill="white"/>
</mask>
<g mask="url(#mask0_75_46)">
<path d="M31.875 22.5C29.7669 24.6081 21.5625 30.9375 21.5625 30.9375M31.875 22.5C37.5 16.875 37.5 13.125 37.5 7.5C31.875 7.5 28.125 7.5 22.5 13.125M31.875 22.5L32.766 26.955C33.3808 30.0287 32.4187 33.2063 30.2021 35.4229L28.0076 37.6174C27.1267 38.4982 25.6478 38.2911 25.0429 37.2021L21.5625 30.9375M21.5625 30.9375L14.0625 23.4375M22.5 13.125L14.0625 23.4375M22.5 13.125L18.0449 12.234C14.9712 11.6192 11.7937 12.5813 9.5772 14.7978L7.38268 16.9923C6.50184 17.8732 6.70899 19.3522 7.79794 19.9571L14.0625 23.4375M29.0625 15.9384L27.1875 17.8134M5.625 39.375L11.9854 38.103C13.7383 37.7524 15 36.2134 15 34.4257V33.75C15 31.6789 13.3211 30 11.25 30H10.5743C8.78672 30 7.24766 31.2617 6.89709 33.0146L5.625 39.375Z" stroke="white" stroke-width="5" stroke-linecap="round" stroke-linejoin="round"/>
</g>
</svg>
