<svg width="72" height="72" viewBox="0 0 72 72" fill="none" xmlns="http://www.w3.org/2000/svg">
<circle cx="35.5208" cy="35.5208" r="35.284" fill="white" stroke="#7085F6" stroke-width="0.47361"/>
<path fill-rule="evenodd" clip-rule="evenodd" d="M54.3756 20.764C55.01 17.6713 51.9723 15.1013 49.0275 16.2391L12.9296 30.186C9.64098 31.4566 9.49445 36.0553 12.6955 37.5326L20.5566 41.1609L24.2962 54.2495C24.4905 54.9294 25.03 55.4558 25.7144 55.6332C26.3989 55.8104 27.1261 55.6125 27.6261 55.1124L33.3866 49.3518L41.456 55.4039C43.7984 57.1606 47.172 55.8811 47.7603 53.0129L54.3756 20.764ZM14.368 33.9089L50.4659 19.962L43.8506 52.211L34.3967 45.1205C33.6023 44.5246 32.4906 44.6036 31.7883 45.3058L29.3211 47.7731L30.0624 43.696L44.5882 29.1703C45.2952 28.4634 45.3699 27.3424 44.763 26.5479C44.1562 25.7534 43.0552 25.5306 42.1872 26.0266L22.1266 37.4897L14.368 33.9089ZM24.5725 40.6887L25.7826 44.9241L26.2472 42.3688C26.3198 41.9695 26.5125 41.6017 26.7995 41.3147L31.2294 36.885L24.5725 40.6887Z" fill="#7085F6"/>
</svg>
