<svg width="200" height="200" viewBox="0 0 200 200" fill="none" xmlns="http://www.w3.org/2000/svg">
<g clip-path="url(#clip0_74_29)">
<path d="M100 50C93.8193 50 87.7775 51.8328 82.6384 55.2666C77.4994 58.7004 73.494 63.581 71.1288 69.2911C68.7635 75.0013 68.1447 81.2847 69.3505 87.3466C70.5562 93.4085 73.5325 98.9767 77.9029 103.347C82.2733 107.717 87.8415 110.694 93.9034 111.9C99.9653 113.105 106.249 112.486 111.959 110.121C117.669 107.756 122.55 103.751 125.983 98.6116C129.417 93.4725 131.25 87.4307 131.25 81.25C131.25 72.962 127.958 65.0134 122.097 59.1529C116.237 53.2924 108.288 50 100 50Z" fill="#91A1F6"/>
<path d="M100 9.5C82.6941 9.5 65.7769 14.6318 51.3876 24.2464C36.9983 33.861 25.7832 47.5267 19.1605 63.5152C12.5379 79.5037 10.8051 97.0971 14.1813 114.07C17.5575 131.044 25.8911 146.635 38.1281 158.872C50.3652 171.109 65.9563 179.443 82.9296 182.819C99.9029 186.195 117.496 184.462 133.485 177.839C149.473 171.217 163.139 160.002 172.754 145.612C182.368 131.223 187.5 114.306 187.5 97C187.474 73.8016 178.247 51.5608 161.843 35.157C145.439 18.7533 123.198 9.52614 100 9.5ZM149.953 152.786C149.829 144.588 146.488 136.766 140.652 131.008C134.815 125.249 126.949 122.014 118.75 122H81.25C73.0506 122.014 65.185 125.249 59.3483 131.008C53.5116 136.766 50.1711 144.588 50.0469 152.786C38.7129 142.666 30.7202 129.342 27.1271 114.578C23.534 99.8141 24.51 84.3072 29.9259 70.1104C35.3417 55.9136 44.942 43.6967 57.4554 35.0773C69.9689 26.4579 84.8053 21.8427 100 21.8427C115.195 21.8427 130.031 26.4579 142.545 35.0773C155.058 43.6967 164.658 55.9136 170.074 70.1104C175.49 84.3072 176.466 99.8141 172.873 114.578C169.28 129.342 161.287 142.666 149.953 152.786Z" fill="#7085F6"/>
</g>
<defs>
<clipPath id="clip0_74_29">
<rect width="200" height="200" fill="white"/>
</clipPath>
</defs>
</svg>
